<svg t="1655105251008" class="icon" viewBox="0 0 1024 1024" version="1.1" xmlns="http://www.w3.org/2000/svg" p-id="2144" width="200" height="200"><path d="M850.502618 103.212137c-6.638345 6.391172-84.638896 83.120551-220.654343 83.120551-103.953654 0-168.395033-35.275034-168.395033-35.275034C394.010484 118.113103 359.971311 112.71062 301.144277 112.71062c-59.568551 0-124.00993 9.639724-161.015171 31.461517L140.129106 686.433099c37.005241-17.478621 103.247448-27.471448 156.989792-27.471448 103.600551 0 132.978758 24.222896 225.279999 61.051586 34.003862 13.100138 77.823999 28.495448 125.351723 29.307586 119.066482 2.01269 218.323861-60.274758 234.390067-124.257103l1.518345-502.783997c0.03531-0.494345 0.211862-1.094621 0.211862-1.694897C883.870894 88.911448 862.402205 91.700965 850.502618 103.212137z" p-id="2145"></path><path d="M142.353658 763.515581 142.353658 971.034476c0 29.236965 23.728552 52.965517 52.965517 52.965517s52.965517-23.728552 52.965517-52.965517l0-238.521378c-33.721379 3.813517-63.276138 10.840276-77.965241 17.796414L142.353658 763.515581z" p-id="2146"></path><path d="M203.723036 0 186.880002 0C162.268692 0 142.353658 19.915034 142.353658 44.561655l0 21.645241c35.204414-12.641103 73.657379-18.855724 105.931034-21.645241C248.284691 19.915034 228.334347 0 203.723036 0z" p-id="2147"></path></svg>