<?xml version="1.0" standalone="no"?><!DOCTYPE svg PUBLIC "-//W3C//DTD SVG 1.1//EN" "http://www.w3.org/Graphics/SVG/1.1/DTD/svg11.dtd"><svg t="1653896689080" class="icon" viewBox="0 0 1024 1024" version="1.1" xmlns="http://www.w3.org/2000/svg" p-id="3746" xmlns:xlink="http://www.w3.org/1999/xlink" width="200" height="200"><defs><style type="text/css">@font-face { font-family: feedback-iconfont; src: url("//at.alicdn.com/t/font_1031158_u69w8yhxdu.woff2?t=1630033759944") format("woff2"), url("//at.alicdn.com/t/font_1031158_u69w8yhxdu.woff?t=1630033759944") format("woff"), url("//at.alicdn.com/t/font_1031158_u69w8yhxdu.ttf?t=1630033759944") format("truetype"); }
</style></defs><path d="M165.692286 509.902832a22.371927 22.371927 0 0 0 30.687071-7.746096 208.661859 208.661859 0 0 1 22.496607-30.846917 22.378321 22.378321 0 1 0-33.605844-29.564959 254.377572 254.377572 0 0 0-27.32393 37.474097 22.378321 22.378321 0 0 0 7.746096 30.683875zM326.259936 814.19365c-112.530986-27.924948-181.366701-142.198245-153.444951-254.735625a22.371927 22.371927 0 0 0-16.32978-27.106541 22.375124 22.375124 0 0 0-27.106541 16.329781c-33.86799 136.48538 49.619131 275.080716 186.107709 308.951903a22.320777 22.320777 0 0 0 5.405963 0.664956 22.378321 22.378321 0 0 0 5.3676-44.104474z" fill="#009FE8" p-id="3747"></path><path d="M986.637795 565.260404l-29.206906-15.041429 24.574593-21.799681a9.590709 9.590709 0 0 0-7.822821-16.652668l-25.997216 4.002523c28.720977-57.205382 22.566938-128.54747-21.342524-180.401237a22.237657 22.237657 0 0 0-11.40655-7.170653 22.304792 22.304792 0 0 0-8.717954-1.764691h-0.501914c-65.888171 0-119.612126-53.487384-119.842303-119.426705a22.237657 22.237657 0 0 0-2.244226-9.638662c-3.551759-38.330867-20.226805-73.874035-47.873622-101.325841-31.057913-30.84372-72.218039-47.806487-115.96446-47.806488h-0.594624c-43.967007 0.153451-85.242222 17.419924-116.223408 48.618501-27.72674 27.924948-44.197184 64.024376-47.24703 102.818795l-51.812207-12.854747a22.384715 22.384715 0 0 0-23.98956 9.274215L328.066186 274.342231c-0.079923 0.118285-0.140664 0.242965-0.21739 0.36125-136.744329 22.455047-249.406388 124.030246-283.728338 262.341057-46.697162 188.195286 68.413724 379.299753 256.615404 426.000112a353.002029 353.002029 0 0 0 84.94491 10.428298c161.792064 0 302.040199-109.810421 341.058399-267.040504 37.163997-149.771709-28.161519-301.381637-151.242284-380.584909l-8.647622-83.496712a22.371927 22.371927 0 0 0-16.870057-19.414792l-49.504043-12.282502c0.549867-31.038731 12.806793-60.165714 34.753532-82.262708 22.557348-22.710799 52.608236-35.284218 84.622023-35.39611h0.431582c31.850745 0 61.824907 12.349636 84.433405 34.80788 22.713996 22.557348 35.287415 52.608236 35.39611 84.622023a22.256839 22.256839 0 0 0 2.250619 9.654647c7.586251 80.859268 73.842065 144.822903 155.548513 148.905348 27.218432 37.141619 29.983753 85.651425 10.108607 124.95415l-11.828541-27.109737a9.593906 9.593906 0 0 0-18.257513 2.295376l-5.278087 32.426187-28.327757-16.633486a9.590709 9.590709 0 0 0-13.420599 12.586207l14.785676 29.337979-32.697924 3.193706a9.590709 9.590709 0 0 0-3.459049 18.068896l29.206906 15.041428-24.574593 21.802879a9.590709 9.590709 0 0 0 7.822821 16.652668l32.470944-4.99676-7.065156 32.080922a9.587512 9.587512 0 0 0 16.118785 8.874603l23.327802-23.126397 13.139271 30.108433a9.590709 9.590709 0 0 0 18.257513-2.29218l5.278087-32.429384 28.330954 16.633487a9.590709 9.590709 0 0 0 13.417402-12.586208l-14.785676-29.334781 32.697924-3.196903a9.590709 9.590709 0 0 0 3.459049-18.07529z m-303.338142 130.39528c-34.050214 137.223864-156.437251 233.060623-297.618881 233.060622a308.14948 308.14948 0 0 1-74.16815-9.111173C147.268534 878.847816 46.805857 712.068584 87.563173 547.821298c34.050214-137.223864 156.437251-233.060623 297.615685-233.060622a308.14948 308.14948 0 0 1 74.16815 9.111173c164.244089 40.757316 264.709962 207.536549 223.952645 371.783835zM527.843851 300.185995a352.356255 352.356255 0 0 0-57.72328-19.753664 353.002029 353.002029 0 0 0-84.94491-10.428297l-0.358053 0.006393 24.066286-35.971552 115.066129 28.551541 3.893828 37.595579z m406.837876 268.616578a9.593906 9.593906 0 0 0-7.631007 13.861771l6.435365 12.762037-12.327258-7.237789a9.597103 9.597103 0 0 0-14.322125 6.726284l-2.298573 14.107933-5.716063-13.100908a9.584315 9.584315 0 0 0-8.791483-5.754426c-2.503175 0-4.939215 0.984646-6.751859 2.778109l-10.150167 10.063851 3.072223-13.957679a9.590709 9.590709 0 0 0-10.824713-11.54082l-14.133508 2.173894 10.696837-9.488408a9.597103 9.597103 0 0 0-1.975686-15.69999l-12.710886-6.544061 14.229415-1.39385a9.590709 9.590709 0 0 0 7.631008-13.861771l-6.435366-12.762037 12.324061 7.237789a9.6003 9.6003 0 0 0 14.325322-6.726284l2.298573-14.107933 5.716063 13.100908a9.584315 9.584315 0 0 0 6.98843 5.581793 9.584315 9.584315 0 0 0 8.558109-2.605476l5.843939-5.795985c0.965465 0.617002 1.966095 1.182854 2.989104 1.716737l-1.755099 7.969879a9.590709 9.590709 0 0 0 10.824713 11.54082l14.130311-2.173894-10.69364 9.485211a9.597103 9.597103 0 0 0 1.975686 15.699991l12.714083 6.547257-14.235809 1.397047z" fill="#009FE8" p-id="3748"></path></svg>